0
SECTION
2
HEADER
9
$INSUNITS
70
4
9
$ACADVER
1
AC1014
9
$HANDSEED
5
FFFF
0
ENDSEC
0
SECTION
2
TABLES
0
TABLE
2
VPORT
5
8
100
AcDbSymbolTable
0
ENDTAB
0
TABLE
2
LTYPE
5
5
100
AcDbSymbolTable
0
LTYPE
5
14
100
AcDbSymbolTableRecord
100
AcDbLinetypeTableRecord
2
BYBLOCK
70
0
0
LTYPE
5
15
100
AcDbSymbolTableRecord
100
AcDbLinetypeTableRecord
2
BYLAYER
70
0
0
ENDTAB
0
TABLE
2
LAYER
5
2
100
AcDbSymbolTable
70
2
0
LAYER
5
50
100
AcDbSymbolTableRecord
100
AcDbLayerTableRecord
2
0
70
0
6
CONTINUOUS
0
ENDTAB
0
TABLE
2
STYLE
5
3
100
AcDbSymbolTable
70
1
0
STYLE
5
11
100
AcDbSymbolTableRecord
100
AcDbTextStyleTableRecord
2
STANDARD
70
0
0
ENDTAB
0
TABLE
2
VIEW
5
6
100
AcDbSymbolTable
70
0
0
ENDTAB
0
TABLE
2
UCS
5
7
100
AcDbSymbolTable
70
0
0
ENDTAB
0
TABLE
2
APPID
5
9
100
AcDbSymbolTable
70
2
0
APPID
5
12
100
AcDbSymbolTableRecord
100
AcDbRegAppTableRecord
2
ACAD
70
0
0
ENDTAB
0
TABLE
2
DIMSTYLE
5
A
100
AcDbSymbolTable
70
1
0
ENDTAB
0
TABLE
2
BLOCK_RECORD
5
1
100
AcDbSymbolTable
70
1
0
BLOCK_RECORD
5
1F
100
AcDbSymbolTableRecord
100
AcDbBlockTableRecord
2
*MODEL_SPACE
0
BLOCK_RECORD
5
1B
100
AcDbSymbolTableRecord
100
AcDbBlockTableRecord
2
*PAPER_SPACE
0
ENDTAB
0
ENDSEC
0
SECTION
2
BLOCKS
0
BLOCK
5
20
100
AcDbEntity
100
AcDbBlockBegin
2
*MODEL_SPACE
0
ENDBLK
5
21
100
AcDbEntity
100
AcDbBlockEnd
0
BLOCK
5
1C
100
AcDbEntity
100
AcDbBlockBegin
2
*PAPER_SPACE
0
ENDBLK
5
1D
100
AcDbEntity
100
AcDbBlockEnd
0
ENDSEC
0
SECTION
2
ENTITIES
0
LINE
5
100
100
AcDbEntity
8
0
100
AcDbLine
10
2044.5105941291167
20
-60.731282304622944
30
0
11
2044.1188641742485
21
-60.731282304621736
31
0
0
LINE
5
101
100
AcDbEntity
8
0
100
AcDbLine
10
2110.9762901819545
20
10.12432681380945
30
0
11
2111.0022186875235
21
63.571139052697362
31
0
0
LINE
5
102
100
AcDbEntity
8
0
100
AcDbLine
10
1977.968215801593
20
-107.80536845901358
30
0
11
1978.2103293462355
21
-148.56381610502922
31
0
0
SPLINE
5
103
100
AcDbEntity
8
0
100
AcDbSpline
70
4
71
5
72
31
73
25
74
0
42
0.000000001
43
0.0000000001
44
0.0000000001
40
0
40
0
40
0
40
0
40
0
40
0
40
0.050000000000000003
40
0.10000000000000001
40
0.15000000000000002
40
0.20000000000000001
40
0.25
40
0.29999999999999999
40
0.34999999999999998
40
0.39999999999999997
40
0.44999999999999996
40
0.49999999999999994
40
0.54999999999999993
40
0.59999999999999998
40
0.65000000000000002
40
0.70000000000000007
40
0.75000000000000011
40
0.80000000000000016
40
0.8500000000000002
40
0.90000000000000024
40
0.95000000000000029
40
1
40
1
40
1
40
1
40
1
40
1
41
1
41
1
41
1
41
1
41
1
41
1
41
1
41
1
41
1
41
1
41
1
41
1
41
1
41
1
41
1
41
1
41
1
41
1
41
1
41
1
41
1
41
1
41
1
41
1
41
1
10
1978.2103293462355
20
-148.56381610502922
30
0
10
1978.2176798140233
20
-148.6871082812163
30
0
10
1978.2553978314095
20
-149.02573055921837
30
0
10
1978.3810247122199
20
-149.8097790194507
30
0
10
1978.6895811330189
20
-151.37110256727684
30
0
10
1979.3242649906267
20
-153.96698296589912
30
0
10
1980.2203351508647
20
-156.92004670264191
30
0
10
1981.3798095784155
20
-159.92584459138325
30
0
10
1982.7865640233686
20
-162.71185083496246
30
0
10
1984.394702001835
20
-165.09706800327803
30
0
10
1986.127058906211
20
-167.02213971677753
30
0
10
1987.8994334198123
20
-168.50664178770097
30
0
10
1989.6390333491584
20
-169.62256559153678
30
0
10
1991.3062325509134
20
-170.46227817224656
30
0
10
1992.9131165986885
20
-171.11115521005544
30
0
10
1994.5503693509213
20
-171.61494106928569
30
0
10
1996.3402575512464
20
-171.98975774481792
30
0
10
1998.3754799032956
20
-172.23849137879481
30
0
10
2000.6696420525307
20
-172.36354652083193
30
0
10
2003.0851325954932
20
-172.38412605106507
30
0
10
2005.3221753167636
20
-172.34223738955808
30
0
10
2006.6965979123624
20
-172.29652869490786
30
0
10
2007.3641309316033
20
-172.27334622335522
30
0
10
2007.630340471937
20
-172.26521406920506
30
0
10
2007.7187373687088
20
-172.26297950704009
30
0
0
LINE
5
104
100
AcDbEntity
8
0
100
AcDbLine
10
2007.7187373687088
20
-172.26297950704009
30
0
11
2044.7605376271717
21
-172.05024574730055
31
0
0
SPLINE
5
105
100
AcDbEntity
8
0
100
AcDbSpline
70
4
71
5
72
31
73
25
74
0
42
0.000000001
43
0.0000000001
44
0.0000000001
40
0
40
0
40
0
40
0
40
0
40
0
40
0.050000000000000003
40
0.10000000000000001
40
0.15000000000000002
40
0.20000000000000001
40
0.25
40
0.29999999999999999
40
0.34999999999999998
40
0.39999999999999997
40
0.44999999999999996
40
0.49999999999999994
40
0.54999999999999993
40
0.59999999999999998
40
0.65000000000000002
40
0.70000000000000007
40
0.75000000000000011
40
0.80000000000000016
40
0.8500000000000002
40
0.90000000000000024
40
0.95000000000000029
40
1
40
1
40
1
40
1
40
1
40
1
41
1
41
1
41
1
41
1
41
1
41
1
41
1
41
1
41
1
41
1
41
1
41
1
41
1
41
1
41
1
41
1
41
1
41
1
41
1
41
1
41
1
41
1
41
1
41
1
41
1
10
1994.5482050797889
20
-61.416686960570971
30
0
10
1994.5694701393722
20
-61.565530353234919
30
0
10
1994.5670140812238
20
-62.103093841709153
30
0
10
1994.428299652679
20
-63.629281847999053
30
0
10
1994.0178265498173
20
-66.890551744718735
30
0
10
1993.3523294788342
20
-71.877277982888344
30
0
10
1992.7795986387243
20
-76.441088303952853
30
0
10
1992.4416263251667
20
-79.553490407645157
30
0
10
1992.3281669281164
20
-80.764279355334324
30
0
10
1992.0475739837561
20
-81.023730604975242
30
0
10
1991.0185749679194
20
-82.233661189351267
30
0
10
1989.323111865833
20
-84.511888730505675
30
0
10
1987.2426013151671
20
-87.50201182749251
30
0
10
1985.1975679593736
20
-90.445628389326572
30
0
10
1983.5378033387105
20
-92.723122828599841
30
0
10
1982.3600899595872
20
-94.28338620628449
30
0
10
1981.544125147507
20
-95.548295056972933
30
0
10
1980.8896462871419
20
-97.053770291208082
30
0
10
1980.2059076087944
20
-99.21731089616614
30
0
10
1979.4461931382925
20
-101.97528328483017
30
0
10
1978.6985150060973
20
-104.84519018051475
30
0
10
1978.223594415997
20
-106.73010444961888
30
0
10
1977.9989973325687
20
-107.65940035359534
30
0
10
1977.9167215249879
20
-108.02861091535786
30
0
10
1977.8924512994081
20
-108.15062457356774
30
0
0
SPLINE
5
106
100
AcDbEntity
8
0
100
AcDbSpline
70
4
71
5
72
31
73
25
74
0
42
0.000000001
43
0.0000000001
44
0.0000000001
40
0
40
0
40
0
40
0
40
0
40
0
40
0.050000000000000003
40
0.10000000000000001
40
0.15000000000000002
40
0.20000000000000001
40
0.25
40
0.29999999999999999
40
0.34999999999999998
40
0.39999999999999997
40
0.44999999999999996
40
0.49999999999999994
40
0.54999999999999993
40
0.59999999999999998
40
0.65000000000000002
40
0.70000000000000007
40
0.75000000000000011
40
0.80000000000000016
40
0.8500000000000002
40
0.90000000000000024
40
0.95000000000000029
40
1
40
1
40
1
40
1
40
1
40
1
41
1
41
1
41
1
41
1
41
1
41
1
41
1
41
1
41
1
41
1
41
1
41
1
41
1
41
1
41
1
41
1
41
1
41
1
41
1
41
1
41
1
41
1
41
1
41
1
41
1
10
2094.5140272138487
20
-61.183667627049175
30
0
10
2094.4934304534358
20
-61.332604968770539
30
0
10
2094.4982993456169
20
-61.870152018106985
30
0
10
2094.6438626861177
20
-63.395702029473014
30
0
10
2095.0689698947103
20
-66.655096661733893
30
0
10
2095.7568432291832
20
-71.638785576756291
30
0
10
2096.3500530050446
20
-76.199979216970519
30
0
10
2096.7019919597792
20
-79.310832976276927
30
0
10
2096.8208848513195
20
-80.521100463626297
30
0
10
2097.1026395185586
20
-80.779289655652136
30
0
10
2098.1370589536491
20
-81.984589380206629
30
0
10
2099.8427308222554
20
-84.25518386987406
30
0
10
2101.9366416105108
20
-87.235938455091571
30
0
10
2103.9948668162292
20
-90.170346213356268
30
0
10
2105.6648372724344
20
-92.440367841495515
30
0
10
2106.8495420446916
20
-93.995329324506713
30
0
10
2107.671176192418
20
-95.256562967569948
30
0
10
2108.3324057996315
20
-96.759085402058943
30
0
10
2109.025848662659
20
-98.919535245343809
30
0
10
2109.7979346651114
20
-101.67406986632854
30
0
10
2110.5584868695455
20
-104.54059189198881
30
0
10
2111.0418631308398
20
-106.42335548807657
30
0
10
2111.2706291051372
20
-107.35163392476805
30
0
10
2111.3545612889679
20
-107.72047147158987
30
0
10
2111.3793789295082
20
-107.8423749635715
30
0
0
LINE
5
107
100
AcDbEntity
8
0
100
AcDbLine
10
2111.2994294533291
20
-107.48627457748444
30
0
11
2111.2474361095169
21
-148.26525884915839
31
0
0
SPLINE
5
108
100
AcDbEntity
8
0
100
AcDbSpline
70
4
71
5
72
31
73
25
74
0
42
0.000000001
43
0.0000000001
44
0.0000000001
40
0
40
0
40
0
40
0
40
0
40
0
40
0.050000000000000003
40
0.10000000000000001
40
0.15000000000000002
40
0.20000000000000001
40
0.25
40
0.29999999999999999
40
0.34999999999999998
40
0.39999999999999997
40
0.44999999999999996
40
0.49999999999999994
40
0.54999999999999993
40
0.59999999999999998
40
0.65000000000000002
40
0.70000000000000007
40
0.75000000000000011
40
0.80000000000000016
40
0.8500000000000002
40
0.90000000000000024
40
0.95000000000000029
40
1
40
1
40
1
40
1
40
1
40
1
41
1
41
1
41
1
41
1
41
1
41
1
41
1
41
1
41
1
41
1
41
1
41
1
41
1
41
1
41
1
41
1
41
1
41
1
41
1
41
1
41
1
41
1
41
1
41
1
41
1
10
2111.2474361095169
20
-148.26525884915839
30
0
10
2111.2406328748334
20
-148.38870058289527
30
0
10
2111.2039724779088
20
-148.72762115507419
30
0
10
2111.0798214723018
20
-149.51211456103724
30
0
10
2110.7730909573238
20
-151.07410594823767
30
0
10
2110.1408905800349
20
-153.67138249972575
30
0
10
2109.2480348621002
20
-156.62693123433235
30
0
10
2108.0929706608754
20
-159.63675641965776
30
0
10
2106.6920873285499
20
-162.42858424219551
30
0
10
2105.0911512596172
20
-164.82124305732219
30
0
10
2103.3667906087026
20
-166.75487073077534
30
0
10
2101.6024760364571
20
-168.24842455193536
30
0
10
2099.8702194273769
20
-169.37329359206717
30
0
10
2098.2089839477671
20
-170.22142599494248
30
0
10
2096.6063048181149
20
-170.87811060088316
30
0
10
2094.9715574730994
20
-171.38951211042968
30
0
10
2093.1827929213987
20
-171.77239070368762
30
0
10
2091.1477629544479
20
-172.03017582084311
30
0
10
2088.8533237756874
20
-172.16545283885497
30
0
10
2086.4373971215769
20
-172.19686520043916
30
0
10
2084.1999322662159
20
-172.16506394301098
30
0
10
2082.8252588772216
20
-172.12557336428429
30
0
10
2082.1576010486087
20
-172.10540916100825
30
0
10
2081.8913368195326
20
-172.09847675671847
30
0
10
2081.8029197011183
20
-172.09663893837103
30
0
0
LINE
5
109
100
AcDbEntity
8
0
100
AcDbLine
10
2081.8029197011183
20
-172.09663893837103
30
0
11
2044.7605376271717
21
-172.05024574730055
31
0
0
LINE
5
110
100
AcDbEntity
8
0
100
AcDbLine
10
2094.5202772498906
20
-61.138477205883461
30
0
11
2094.5749532939731
21
-59.459632898039033
31
0
0
LINE
5
111
100
AcDbEntity
8
0
100
AcDbLine
10
2094.5002410931293
20
-61.283356516537985
30
0
11
2094.5202772498906
21
-61.138477205883461
31
0
0
SPLINE
5
112
100
AcDbEntity
8
0
100
AcDbSpline
70
4
71
5
72
41
73
35
74
0
42
0.000000001
43
0.0000000001
44
0.0000000001
40
0
40
0
40
0
40
0
40
0
40
0
40
0.033333333333333333
40
0.066666666666666666
40
0.10000000000000001
40
0.13333333333333333
40
0.16666666666666666
40
0.19999999999999998
40
0.23333333333333331
40
0.26666666666666666
40
0.29999999999999999
40
0.33333333333333331
40
0.36666666666666664
40
0.39999999999999997
40
0.43333333333333329
40
0.46666666666666662
40
0.49999999999999994
40
0.53333333333333333
40
0.56666666666666665
40
0.59999999999999998
40
0.6333333333333333
40
0.66666666666666663
40
0.69999999999999996
40
0.73333333333333328
40
0.76666666666666661
40
0.79999999999999993
40
0.83333333333333326
40
0.86666666666666659
40
0.89999999999999991
40
0.93333333333333324
40
0.96666666666666656
40
1
40
1
40
1
40
1
40
1
40
1
41
1
41
1
41
1
41
1
41
1
41
1
41
1
41
1
41
1
41
1
41
1
41
1
41
1
41
1
41
1
41
1
41
1
41
1
41
1
41
1
41
1
41
1
41
1
41
1
41
1
41
1
41
1
41
1
41
1
41
1
41
1
41
1
41
1
41
1
41
1
10
2110.9733845692222
20
10.122894901133801
30
0
10
2110.9684169982729
20
10.027075420615217
30
0
10
2110.9344515082716
20
9.7368971423644695
30
0
10
2110.8114112790286
20
9.0060364125848675
30
0
10
2110.5055711625309
20
7.4924814176213816
30
0
10
2109.9042109891902
20
4.9949648090811172
30
0
10
2109.1119227989798
20
2.2446408829111935
30
0
10
2108.1669463766875
20
-0.43723862925080842
30
0
10
2107.1181043131537
20
-2.8783438742012328
30
0
10
2106.0201267527414
20
-5.0557706965572109
30
0
10
2104.9265308251365
20
-7.0368473381985286
30
0
10
2103.8828828483802
20
-8.9377277021461907
30
0
10
2102.9207351428749
20
-10.878651498440533
30
0
10
2102.0489724100717
20
-12.931928512387925
30
0
10
2101.2570221177157
20
-15.116974955942165
30
0
10
2100.5242765778767
20
-17.421591340287733
30
0
10
2099.8277372798093
20
-19.815075800366628
30
0
10
2099.1497757902475
20
-22.263776179056094
30
0
10
2098.4873364462615
20
-24.74747002040489
30
0
10
2097.8493105081702
20
-27.260304552926137
30
0
10
2097.2510902335507
20
-29.807493204382325
30
0
10
2096.7099639113094
20
-32.403806745491181
30
0
10
2096.240577956723
20
-35.070836414994666
30
0
10
2095.8493667207149
20
-37.836160608066649
30
0
10
2095.5329556466841
20
-40.726825309229191
30
0
10
2095.2820314512692
20
-43.755018798126606
30
0
10
2095.0837464645424
20
-46.906089155854346
30
0
10
2094.9247579282523
20
-50.124299773610026
30
0
10
2094.7937710306123
20
-53.30178940412776
30
0
10
2094.6847804800937
20
-56.259619443607328
30
0
10
2094.5984868283094
20
-58.751368071572792
30
0
10
2094.5507685894386
20
-60.173280796310344
30
0
10
2094.5290688474638
20
-60.830032149819999
30
0
10
2094.5211926649772
20
-61.074516535507797
30
0
10
2094.518902290416
20
-61.148419391067989
30
0
0
SPLINE
5
113
100
AcDbEntity
8
0
100
AcDbSpline
70
4
71
5
72
31
73
25
74
0
42
0.000000001
43
0.0000000001
44
0.0000000001
40
0
40
0
40
0
40
0
40
0
40
0
40
0.050000000000000003
40
0.10000000000000001
40
0.15000000000000002
40
0.20000000000000001
40
0.25
40
0.29999999999999999
40
0.34999999999999998
40
0.39999999999999997
40
0.44999999999999996
40
0.49999999999999994
40
0.54999999999999993
40
0.59999999999999998
40
0.65000000000000002
40
0.70000000000000007
40
0.75000000000000011
40
0.80000000000000016
40
0.8500000000000002
40
0.90000000000000024
40
0.95000000000000029
40
1
40
1
40
1
40
1
40
1
40
1
41
1
41
1
41
1
41
1
41
1
41
1
41
1
41
1
41
1
41
1
41
1
41
1
41
1
41
1
41
1
41
1
41
1
41
1
41
1
41
1
41
1
41
1
41
1
41
1
41
1
10
1982.2032052481486
20
-36.506784065700238
30
0
10
1982.4890891367913
20
-36.700906203210558
30
0
10
1983.0542895551985
20
-37.099172926923863
30
0
10
1983.882388063621
20
-37.726639972590824
30
0
10
1984.9469547844003
20
-38.623645364262671
30
0
10
1986.2102726014971
20
-39.845972484660443
30
0
10
1987.403513238087
20
-41.168182818848734
30
0
10
1988.5225649307959
20
-42.58578606743864
30
0
10
1989.5618240481067
20
-44.089528341956566
30
0
10
1990.5139659704466
20
-45.662978894861972
30
0
10
1991.3704614314972
20
-47.282806180983876
30
0
10
1992.1230738668648
20
-48.922597413149511
30
0
10
1992.765169796219
20
-50.555635746157598
30
0
10
1993.2933061890506
20
-52.158142752765059
30
0
10
1993.7087074696929
20
-53.712141596950111
30
0
10
1994.0194117055153
20
-55.209156603438529
30
0
10
1994.2382248728743
20
-56.648260402606098
30
0
10
1994.3800444202002
20
-58.033258512647173
30
0
10
1994.4596020610209
20
-59.370368091627476
30
0
10
1994.4890072162345
20
-60.665702922270519
30
0
10
1994.4757730589963
20
-61.9232008192024
30
0
10
1994.4343840231336
20
-62.900793010686399
30
0
10
1994.3867671529547
20
-63.618481718980171
30
0
10
1994.3476865928992
20
-64.090078209207263
30
0
10
1994.3263122711085
20
-64.324160753959177
30
0
0
SPLINE
5
114
100
AcDbEntity
8
0
100
AcDbSpline
70
4
71
5
72
16
73
10
74
0
42
0.000000001
43
0.0000000001
44
0.0000000001
40
0
40
0
40
0
40
0
40
0
40
0
40
0.20000000000000001
40
0.40000000000000002
40
0.60000000000000009
40
0.80000000000000004
40
1
40
1
40
1
40
1
40
1
40
1
41
1
41
1
41
1
41
1
41
1
41
1
41
1
41
1
41
1
41
1
10
1994.4398240229402
20
-59.197390832283745
30
0
10
1994.4406460067423
20
-59.222154650249045
30
0
10
1994.4441145982762
20
-59.305077532868388
30
0
10
1994.4547856725558
20
-59.529543468601901
30
0
10
1994.4777831888334
20
-59.989263267505294
30
0
10
1994.5116003313135
20
-60.656133645244054
30
0
10
1994.5342908463972
20
-61.108754445971087
30
0
10
1994.5445267903253
20
-61.323158565426979
30
0
10
1994.5476040749975
20
-61.397032991603652
30
0
10
1994.5482050797889
20
-61.416686960570971
30
0
0
SPLINE
5
115
100
AcDbEntity
8
0
100
AcDbSpline
70
4
71
5
72
41
73
35
74
0
42
0.000000001
43
0.0000000001
44
0.0000000001
40
0
40
0
40
0
40
0
40
0
40
0
40
0.033333333333333333
40
0.066666666666666666
40
0.10000000000000001
40
0.13333333333333333
40
0.16666666666666666
40
0.19999999999999998
40
0.23333333333333331
40
0.26666666666666666
40
0.29999999999999999
40
0.33333333333333331
40
0.36666666666666664
40
0.39999999999999997
40
0.43333333333333329
40
0.46666666666666662
40
0.49999999999999994
40
0.53333333333333333
40
0.56666666666666665
40
0.59999999999999998
40
0.6333333333333333
40
0.66666666666666663
40
0.69999999999999996
40
0.73333333333333328
40
0.76666666666666661
40
0.79999999999999993
40
0.83333333333333326
40
0.86666666666666659
40
0.89999999999999991
40
0.93333333333333324
40
0.96666666666666656
40
1
40
1
40
1
40
1
40
1
40
1
41
1
41
1
41
1
41
1
41
1
41
1
41
1
41
1
41
1
41
1
41
1
41
1
41
1
41
1
41
1
41
1
41
1
41
1
41
1
41
1
41
1
41
1
41
1
41
1
41
1
41
1
41
1
41
1
41
1
41
1
41
1
41
1
41
1
41
1
41
1
10
1972.7782173200069
20
65.36949802672315
30
0
10
1972.7018429116342
20
65.28089746695764
30
0
10
1972.4652969915296
20
65.00573373245895
30
0
10
1971.8590846731272
20
64.299099333240321
30
0
10
1970.6023458736959
20
62.805408728749256
30
0
10
1968.5648773926691
20
60.211971584514842
30
0
10
1966.361994723417
20
57.10932378227745
30
0
10
1964.1884915881108
20
53.660034375002041
30
0
10
1962.1554239669524
20
49.979115083463981
30
0
10
1960.3137983055972
20
46.141861873934232
30
0
10
1958.6779275982556
20
42.191133007026892
30
0
10
1957.2472218796522
20
38.144626733131552
30
0
10
1956.0318585496927
20
34.002007505858174
30
0
10
1955.0554458789272
20
29.751746602255409
30
0
10
1954.3497707269576
20
25.377786112823578
30
0
10
1953.9521837957247
20
20.866304836781442
30
0
10
1953.901865621589
20
16.212324332391507
30
0
10
1954.2365508132777
20
11.426809086966365
30
0
10
1954.9889218406174
20
6.5427053890839044
30
0
10
1956.1825253730749
20
1.6088888373115
30
0
10
1957.8274833702696
20
-3.314899618109608
30
0
10
1959.9162806285135
20
-8.1633174171712746
30
0
10
1962.4188852092461
20
-12.870704877723725
30
0
10
1965.278852835324
20
-17.375978272877429
30
0
10
1968.4062836962246
20
-21.628707398654484
30
0
10
1971.6846833154141
20
-25.589716669848176
30
0
10
1974.9845642782147
20
-29.229121272441635
30
0
10
1978.1744916779428
20
-32.525289341327067
30
0
10
1981.1337456324318
20
-35.46357854861381
30
0
10
1983.7629474366267
20
-38.035241503721032
30
0
10
1985.9992725225243
20
-40.236532510717986
30
0
10
1987.451391012662
20
-41.701062849858353
30
0
10
1988.3472266138822
20
-42.633240627811048
30
0
10
1988.8587385347321
20
-43.18095159005474
30
0
10
1989.0930652007294
20
-43.436371783615016
30
0
0
LINE
5
116
100
AcDbEntity
8
0
100
AcDbLine
10
2014.8693108406385
20
85.846525537735687
30
0
11
2102.83794052146
21
93.615853841170889
31
0
0
LINE
5
117
100
AcDbEntity
8
0
100
AcDbLine
10
2111.0022186875235
20
63.571139052697362
30
0
11
2109.6695608208875
21
88.32178418904158
31
0
0
SPLINE
5
118
100
AcDbEntity
8
0
100
AcDbSpline
70
4
71
5
72
21
73
15
74
0
42
0.000000001
43
0.0000000001
44
0.0000000001
40
0
40
0
40
0
40
0
40
0
40
0
40
0.10000000000000001
40
0.20000000000000001
40
0.30000000000000004
40
0.40000000000000002
40
0.5
40
0.59999999999999998
40
0.69999999999999996
40
0.79999999999999993
40
0.89999999999999991
40
1
40
1
40
1
40
1
40
1
40
1
41
1
41
1
41
1
41
1
41
1
41
1
41
1
41
1
41
1
41
1
41
1
41
1
41
1
41
1
41
1
10
1972.7782173200069
20
65.36949802672315
30
0
10
1973.3169939382519
20
66.089745123297035
30
0
10
1974.4527096290158
20
67.505782146816856
30
0
10
1976.3307512097672
20
69.556470629268176
30
0
10
1979.1896545503892
20
72.141535496402511
30
0
10
1983.3726805716569
20
75.105286296287119
30
0
10
1988.1563292493056
20
77.771085674556659
30
0
10
1993.4595442402865
20
80.102385956421273
30
0
10
1999.0871939247406
20
82.0628486033618
30
0
10
2004.6404984473045
20
83.632613049280792
30
0
10
2009.5652344264827
20
84.806078585121725
30
0
10
2012.5466197987312
20
85.425012951254445
30
0
10
2014.0333161916469
20
85.707594636054424
30
0
10
2014.6628280399618
20
85.814797531616733
30
0
10
2014.887167708863
20
85.848102643940635
30
0
0
SPLINE
5
119
100
AcDbEntity
8
0
100
AcDbSpline
70
4
71
5
72
21
73
15
74
0
42
0.000000001
43
0.0000000001
44
0.0000000001
40
0
40
0
40
0
40
0
40
0
40
0
40
0.10000000000000001
40
0.20000000000000001
40
0.30000000000000004
40
0.40000000000000002
40
0.5
40
0.59999999999999998
40
0.69999999999999996
40
0.79999999999999993
40
0.89999999999999991
40
1
40
1
40
1
40
1
40
1
40
1
41
1
41
1
41
1
41
1
41
1
41
1
41
1
41
1
41
1
41
1
41
1
41
1
41
1
41
1
41
1
10
2102.1729724680022
20
93.557124324326523
30
0
10
2102.4563361332357
20
93.587192287234132
30
0
10
2103.0116453642445
20
93.635795201046989
30
0
10
2103.8103568812603
20
93.674102524444947
30
0
10
2104.8056568540319
20
93.654829289567687
30
0
10
2105.9256177914954
20
93.505324122241703
30
0
10
2106.9095625124719
20
93.218433862134674
30
0
10
2107.7451506153448
20
92.781693913161817
30
0
10
2108.4235465541183
20
92.186179807975606
30
0
10
2108.9478855844964
20
91.435058355892096
30
0
10
2109.3285397708478
20
90.538806006618486
30
0
10
2109.5269032926863
20
89.714575901067221
30
0
10
2109.6196628662979
20
89.039826535336573
30
0
10
2109.6570102079604
20
88.565254758092706
30
0
10
2109.669560820902
20
88.321784188768675
30
0
0
ENDSEC
0
SECTION
2
OBJECTS
0
DICTIONARY
5
C
100
AcDbDictionary
3
ACAD_GROUP
350
D
3
ACAD_MLINESTYLE
350
17
0
DICTIONARY
5
D
100
AcDbDictionary
0
DICTIONARY
5
1A
330
C
100
AcDbDictionary
0
DICTIONARY
5
17
100
AcDbDictionary
0
ENDSEC
0
EOF
