0
SECTION
2
HEADER
9
$INSUNITS
70
4
9
$ACADVER
1
AC1014
9
$HANDSEED
5
FFFF
0
ENDSEC
0
SECTION
2
TABLES
0
TABLE
2
VPORT
5
8
100
AcDbSymbolTable
0
ENDTAB
0
TABLE
2
LTYPE
5
5
100
AcDbSymbolTable
0
LTYPE
5
14
100
AcDbSymbolTableRecord
100
AcDbLinetypeTableRecord
2
BYBLOCK
70
0
0
LTYPE
5
15
100
AcDbSymbolTableRecord
100
AcDbLinetypeTableRecord
2
BYLAYER
70
0
0
ENDTAB
0
TABLE
2
LAYER
5
2
100
AcDbSymbolTable
70
2
0
LAYER
5
50
100
AcDbSymbolTableRecord
100
AcDbLayerTableRecord
2
0
70
0
6
CONTINUOUS
0
ENDTAB
0
TABLE
2
STYLE
5
3
100
AcDbSymbolTable
70
1
0
STYLE
5
11
100
AcDbSymbolTableRecord
100
AcDbTextStyleTableRecord
2
STANDARD
70
0
0
ENDTAB
0
TABLE
2
VIEW
5
6
100
AcDbSymbolTable
70
0
0
ENDTAB
0
TABLE
2
UCS
5
7
100
AcDbSymbolTable
70
0
0
ENDTAB
0
TABLE
2
APPID
5
9
100
AcDbSymbolTable
70
2
0
APPID
5
12
100
AcDbSymbolTableRecord
100
AcDbRegAppTableRecord
2
ACAD
70
0
0
ENDTAB
0
TABLE
2
DIMSTYLE
5
A
100
AcDbSymbolTable
70
1
0
ENDTAB
0
TABLE
2
BLOCK_RECORD
5
1
100
AcDbSymbolTable
70
1
0
BLOCK_RECORD
5
1F
100
AcDbSymbolTableRecord
100
AcDbBlockTableRecord
2
*MODEL_SPACE
0
BLOCK_RECORD
5
1B
100
AcDbSymbolTableRecord
100
AcDbBlockTableRecord
2
*PAPER_SPACE
0
ENDTAB
0
ENDSEC
0
SECTION
2
BLOCKS
0
BLOCK
5
20
100
AcDbEntity
100
AcDbBlockBegin
2
*MODEL_SPACE
0
ENDBLK
5
21
100
AcDbEntity
100
AcDbBlockEnd
0
BLOCK
5
1C
100
AcDbEntity
100
AcDbBlockBegin
2
*PAPER_SPACE
0
ENDBLK
5
1D
100
AcDbEntity
100
AcDbBlockEnd
0
ENDSEC
0
SECTION
2
ENTITIES
0
LINE
5
100
100
AcDbEntity
8
0
100
AcDbLine
10
484.42158375135654
20
-672.45288452049988
30
0
11
495.43304194379118
21
-672.45288452049988
31
0
0
LINE
5
101
100
AcDbEntity
8
0
100
AcDbLine
10
562.25457480206967
20
-810.21782308194588
30
0
11
642.45359403141731
21
-797.66336530311901
31
0
0
LINE
5
102
100
AcDbEntity
8
0
100
AcDbLine
10
642.45359403141731
20
-797.66336530311901
30
0
11
642.45359403141811
21
-810.16336530311901
31
0
0
LINE
5
103
100
AcDbEntity
8
0
100
AcDbLine
10
514.01260571535818
20
-844.08672781107748
30
0
11
501.09195121132768
21
-893.14030563938729
31
0
0
LINE
5
104
100
AcDbEntity
8
0
100
AcDbLine
10
514.15976485474278
20
-893.140982351611
30
0
11
546.54844891002551
21
-841.28398863780285
31
0
0
SPLINE
5
105
100
AcDbEntity
8
0
100
AcDbSpline
70
4
71
5
72
21
73
15
74
0
42
0.000000001
43
0.0000000001
44
0.0000000001
40
0
40
0
40
0
40
0
40
0
40
0
40
0.10000000000000001
40
0.20000000000000001
40
0.30000000000000004
40
0.40000000000000002
40
0.5
40
0.59999999999999998
40
0.69999999999999996
40
0.79999999999999993
40
0.89999999999999991
40
1
40
1
40
1
40
1
40
1
40
1
41
1
41
1
41
1
41
1
41
1
41
1
41
1
41
1
41
1
41
1
41
1
41
1
41
1
41
1
41
1
10
573.08226432777974
20
-823.47722288186219
30
0
10
572.44314353694313
20
-823.69137347357434
30
0
10
571.17433872354934
20
-824.13203007520201
30
0
10
569.29944077826372
20
-824.83007988364636
30
0
10
566.857135789528
20
-825.83617401030676
30
0
10
563.90672599298705
20
-827.22795597682557
30
0
10
561.06805843028985
20
-828.76604036278366
30
0
10
558.35043035021079
20
-830.46259991566376
30
0
10
555.75923878413039
20
-832.32470088720993
30
0
10
553.28988868068404
20
-834.34632704610567
30
0
10
550.93335427791612
20
-836.51566109855298
30
0
10
549.13106038868068
20
-838.35971209403897
30
0
10
547.82303779258552
20
-839.79996323773685
30
0
10
546.97012764057172
20
-840.78514443978042
30
0
10
546.54844891002551
20
-841.28398863780285
30
0
0
SPLINE
5
106
100
AcDbEntity
8
0
100
AcDbSpline
70
4
71
5
72
21
73
15
74
0
42
0.000000001
43
0.0000000001
44
0.0000000001
40
0
40
0
40
0
40
0
40
0
40
0
40
0.10000000000000001
40
0.20000000000000001
40
0.30000000000000004
40
0.40000000000000002
40
0.5
40
0.59999999999999998
40
0.69999999999999996
40
0.79999999999999993
40
0.89999999999999991
40
1
40
1
40
1
40
1
40
1
40
1
41
1
41
1
41
1
41
1
41
1
41
1
41
1
41
1
41
1
41
1
41
1
41
1
41
1
41
1
41
1
10
835.82243994674116
20
-802.75336917979394
30
0
10
835.89629820564767
20
-802.7332758452585
30
0
10
836.10054893280903
20
-802.67663674125299
30
0
10
836.57651259476029
20
-802.54231756217803
30
0
10
837.52244870684092
20
-802.25434715148549
30
0
10
839.07005190945074
20
-801.66211475996079
30
0
10
840.79061324069573
20
-800.78849739622547
30
0
10
842.49145660120485
20
-799.61491789513752
30
0
10
844.01738216094577
20
-798.18997602658942
30
0
10
845.28516114485058
20
-796.66524611224554
30
0
10
846.25583807040448
20
-795.24205952061482
30
0
10
846.78467779550942
20
-794.3510855871989
30
0
10
847.04165022963809
20
-793.89769669809243
30
0
10
847.15112355336532
20
-793.70114202464663
30
0
10
847.19039896549975
20
-793.62929267883999
30
0
0
LINE
5
107
100
AcDbEntity
8
0
100
AcDbLine
10
847.19039896549975
20
-793.62929267883999
30
0
11
847.19039896549839
21
-816.35603593044254
31
0
0
LINE
5
108
100
AcDbEntity
8
0
100
AcDbLine
10
785.28419286623875
20
-822.75336917979394
30
0
11
785.25253882050265
21
-822.75336917979394
31
0
0
LINE
5
109
100
AcDbEntity
8
0
100
AcDbLine
10
739.02480898334738
20
-893.30747316006511
30
0
11
755.58683102198518
21
-855.75873135153211
31
0
0
LINE
5
110
100
AcDbEntity
8
0
100
AcDbLine
10
841.32965588381671
20
-888.51544321548488
30
0
11
847.19039896549839
21
-816.35603593044254
31
0
0
LINE
5
111
100
AcDbEntity
8
0
100
AcDbLine
10
828.5718237938687
20
-888.51544321548488
30
0
11
828.57398976812124
21
-846.74027038845622
31
0
0
ARC
5
112
100
AcDbEntity
8
0
100
AcDbCircle
10
803.4035337378549
20
-848.74292942794114
30
0
40
25.25
210
-0
220
0
230
1
100
AcDbArc
50
-4.5550326205383005
51
88.64093723813707
0
LINE
5
113
100
AcDbEntity
8
0
100
AcDbLine
10
743.5671658648946
20
-809.14471846461697
30
0
11
743.56716584241076
21
-802.75336917979394
31
0
0
LINE
5
114
100
AcDbEntity
8
0
100
AcDbLine
10
751.90166584241069
20
-802.75336917979394
30
0
11
751.90166584241069
21
-809.14471846461697
31
0
0
LINE
5
115
100
AcDbEntity
8
0
100
AcDbLine
10
827.00121989006675
20
-809.14472267185693
30
0
11
827.00121989006675
21
-802.64472267185681
31
0
0
LINE
5
116
100
AcDbEntity
8
0
100
AcDbLine
10
818.66671989006682
20
-802.64472267185681
30
0
11
818.66671989006682
21
-809.14472267185693
31
0
0
LINE
5
117
100
AcDbEntity
8
0
100
AcDbLine
10
785.44239381617911
20
-802.75336917979394
30
0
11
751.90166584241069
21
-802.75336917979394
31
0
0
LINE
5
118
100
AcDbEntity
8
0
100
AcDbLine
10
785.12599191629818
20
-802.75336917979394
30
0
11
818.66671989006682
21
-802.75336917979394
31
0
0
LINE
5
119
100
AcDbEntity
8
0
100
AcDbLine
10
827.00121989006675
20
-802.75336917979394
30
0
11
835.82243994674116
21
-802.75336917979394
31
0
0
LINE
5
120
100
AcDbEntity
8
0
100
AcDbLine
10
514.15976485474278
20
-893.140982351611
30
0
11
501.09195121132768
21
-893.14030563938729
31
0
0
LINE
5
121
100
AcDbEntity
8
0
100
AcDbLine
10
726.67735563154997
20
-893.26488561764177
30
0
11
739.04373463155139
21
-893.26456570128346
31
0
0
LINE
5
122
100
AcDbEntity
8
0
100
AcDbLine
10
828.5715776797349
20
-893.26224962949505
30
0
11
840.94414915626487
21
-893.26192955293823
31
0
0
LINE
5
123
100
AcDbEntity
8
0
100
AcDbLine
10
628.08322314821351
20
-812.92135008025366
30
0
11
626.85809181005834
21
-806.53785157204754
31
0
0
LINE
5
124
100
AcDbEntity
8
0
100
AcDbLine
10
628.08324845227139
20
-812.92134522385811
30
0
11
626.85811711412521
21
-806.53784671565006
31
0
0
LINE
5
125
100
AcDbEntity
8
0
100
AcDbLine
10
626.85811711412521
20
-806.53784671565006
30
0
11
626.85809181005834
21
-806.53785157204754
31
0
0
LINE
5
126
100
AcDbEntity
8
0
100
AcDbLine
10
642.45359403141811
20
-810.16336530311901
30
0
11
628.08324845227139
21
-812.92134522385811
31
0
0
LINE
5
127
100
AcDbEntity
8
0
100
AcDbLine
10
591.72010506737172
20
-819.9002184011573
30
0
11
573.08226432777974
21
-823.47722288186219
31
0
0
LINE
5
128
100
AcDbEntity
8
0
100
AcDbLine
10
827.00121989006675
20
-809.14472267185693
30
0
11
818.66671989006682
21
-809.14472267185693
31
0
0
LINE
5
129
100
AcDbEntity
8
0
100
AcDbLine
10
785.28419286623875
20
-822.75336917979394
30
0
11
785.28442536567445
21
-823.12330997364143
31
0
0
LINE
5
130
100
AcDbEntity
8
0
100
AcDbLine
10
576.41152713786164
20
-822.83826538911956
30
0
11
619.8981302497989
21
-814.49224632202868
31
0
0
LINE
5
131
100
AcDbEntity
8
0
100
AcDbLine
10
628.08324845227139
20
-812.92134522385811
30
0
11
635.26842124184395
21
-811.54235526348452
31
0
0
SPLINE
5
132
100
AcDbEntity
8
0
100
AcDbSpline
70
4
71
5
72
26
73
20
74
0
42
0.000000001
43
0.0000000001
44
0.0000000001
40
0
40
0
40
0
40
0
40
0
40
0
40
0.066666666666666666
40
0.13333333333333333
40
0.20000000000000001
40
0.26666666666666666
40
0.33333333333333331
40
0.39999999999999997
40
0.46666666666666662
40
0.53333333333333333
40
0.59999999999999998
40
0.66666666666666663
40
0.73333333333333328
40
0.79999999999999993
40
0.86666666666666659
40
0.93333333333333324
40
1
40
1
40
1
40
1
40
1
40
1
41
1
41
1
41
1
41
1
41
1
41
1
41
1
41
1
41
1
41
1
41
1
41
1
41
1
41
1
41
1
41
1
41
1
41
1
41
1
41
1
10
755.58683102198518
20
-855.75873135153211
30
0
10
755.84099841889997
20
-855.20947450670246
30
0
10
756.35434793076354
20
-854.12145559966791
30
0
10
757.13941612771714
20
-852.52091125395054
30
0
10
758.21648224496903
20
-850.45028072303819
30
0
10
759.61457478497709
20
-847.9709082056886
30
0
10
761.06588311262976
20
-845.60527161394577
30
0
10
762.57140241735669
20
-843.35907614182236
30
0
10
764.13099361674369
20
-841.23806249145684
30
0
10
765.74222041190535
20
-839.24651245055452
30
0
10
767.40008319849699
20
-837.38656280592272
30
0
10
769.09838504267395
20
-835.65915619357156
30
0
10
770.83056651345271
20
-834.06412240300426
30
0
10
772.59054009688748
20
-832.60024967533866
30
0
10
774.37352502700946
20
-831.26453890596395
30
0
10
776.17637119907374
20
-830.05246876477122
30
0
10
777.63301650983408
20
-829.17824422428396
30
0
10
778.73318611789114
20
-828.57480121505148
30
0
10
779.47002317415945
20
-828.19555020942471
30
0
10
779.83928939650525
20
-828.01168575845213
30
0
0
SPLINE
5
133
100
AcDbEntity
8
0
100
AcDbSpline
70
4
71
5
72
26
73
20
74
0
42
0.000000001
43
0.0000000001
44
0.0000000001
40
0
40
0
40
0
40
0
40
0
40
0
40
0.066666666666666666
40
0.13333333333333333
40
0.20000000000000001
40
0.26666666666666666
40
0.33333333333333331
40
0.39999999999999997
40
0.46666666666666662
40
0.53333333333333333
40
0.59999999999999998
40
0.66666666666666663
40
0.73333333333333328
40
0.79999999999999993
40
0.86666666666666659
40
0.93333333333333324
40
1
40
1
40
1
40
1
40
1
40
1
41
1
41
1
41
1
41
1
41
1
41
1
41
1
41
1
41
1
41
1
41
1
41
1
41
1
41
1
41
1
41
1
41
1
41
1
41
1
41
1
10
771.83388250430028
20
-833.24870553639107
30
0
10
771.92301426697225
20
-833.18290790182891
30
0
10
772.18195538015948
20
-832.99809730332197
30
0
10
772.8123757091754
20
-832.56125160169506
30
0
10
774.09298570671479
20
-831.6911647822842
30
0
10
776.18304730633997
20
-830.30226716205118
30
0
10
778.4695625103077
20
-828.83032394496945
30
0
10
780.68581631523955
20
-827.48201252501349
30
0
10
782.68525079145422
20
-826.38806947398518
30
0
10
784.47665011898334
20
-825.57766471135551
30
0
10
786.15715841754707
20
-825.02011239116098
30
0
10
787.87084539399018
20
-824.64916308432737
30
0
10
789.76097108754982
20
-824.39125002515857
30
0
10
791.92083021427015
20
-824.19312719922686
30
0
10
794.40150242452864
20
-824.02058607508422
30
0
10
797.22598568452122
20
-823.85331315126746
30
0
10
799.76443233133205
20
-823.7158518253874
30
0
10
801.82349521358947
20
-823.60928180476708
30
0
10
803.26469077616116
20
-823.53670415168472
30
0
10
804.00241060345797
20
-823.50003247652444
30
0
0
LINE
5
134
100
AcDbEntity
8
0
100
AcDbLine
10
828.5718237938687
20
-888.51544321548488
30
0
11
828.5715776797349
21
-893.26224962949505
31
0
0
LINE
5
135
100
AcDbEntity
8
0
100
AcDbLine
10
841.32965588381671
20
-888.51544321548488
30
0
11
840.94414915626487
21
-893.26192955293823
31
0
0
ARC
5
136
100
AcDbEntity
8
0
100
AcDbCircle
10
558.38812988381846
20
-785.51862094882154
30
0
40
24.999999646399576
210
0
220
0
230
1
100
AcDbArc
50
197.97061116161299
51
278.89695025822306
0
LINE
5
137
100
AcDbEntity
8
0
100
AcDbLine
10
511.93644661995307
20
-723.33427784874959
30
0
11
508.35762319507671
21
-723.33427784874868
31
0
0
LINE
5
138
100
AcDbEntity
8
0
100
AcDbLine
10
508.35762319507671
20
-723.33427784874868
30
0
11
508.3579615771975
21
-731.67927784188817
31
0
0
LINE
5
139
100
AcDbEntity
8
0
100
AcDbLine
10
508.3579615771975
20
-731.67927784188817
30
0
11
514.97606560675706
21
-731.67900948381941
31
0
0
LINE
5
140
100
AcDbEntity
8
0
100
AcDbLine
10
495.43304194379118
20
-672.45288452049988
30
0
11
511.93644661995307
21
-723.33427784874959
31
0
0
LINE
5
141
100
AcDbEntity
8
0
100
AcDbLine
10
514.64306876451394
20
-731.67902298653701
30
0
11
534.60775782316989
21
-793.23184900049387
31
0
0
LINE
5
142
100
AcDbEntity
8
0
100
AcDbLine
10
820.78177286034042
20
-697.44513280318665
30
0
11
825.19238288867768
21
-697.90617671193877
31
0
0
LINE
5
143
100
AcDbEntity
8
0
100
AcDbLine
10
816.2624907766226
20
-697.44513280318665
30
0
11
816.2624907766226
21
-697.90617671193877
31
0
0
LINE
5
144
100
AcDbEntity
8
0
100
AcDbLine
10
820.78177286034042
20
-697.44513280318665
30
0
11
807.92799077662266
21
-697.44513280318665
31
0
0
LINE
5
145
100
AcDbEntity
8
0
100
AcDbLine
10
807.92799077662266
20
-698.01482321987567
30
0
11
807.92799077662266
21
-697.44513280318665
31
0
0
LINE
5
146
100
AcDbEntity
8
0
100
AcDbLine
10
743.14743672896668
20
-697.90617671193877
30
0
11
743.14743672896668
21
-697.44513280318665
31
0
0
LINE
5
147
100
AcDbEntity
8
0
100
AcDbLine
10
734.90744324613718
20
-697.44513280318665
30
0
11
743.14743672896668
21
-697.44513280318665
31
0
0
SPLINE
5
148
100
AcDbEntity
8
0
100
AcDbSpline
70
4
71
5
72
21
73
15
74
0
42
0.000000001
43
0.0000000001
44
0.0000000001
40
0
40
0
40
0
40
0
40
0
40
0
40
0.10000000000000001
40
0.20000000000000001
40
0.30000000000000004
40
0.40000000000000002
40
0.5
40
0.59999999999999998
40
0.69999999999999996
40
0.79999999999999993
40
0.89999999999999991
40
1
40
1
40
1
40
1
40
1
40
1
41
1
41
1
41
1
41
1
41
1
41
1
41
1
41
1
41
1
41
1
41
1
41
1
41
1
41
1
41
1
10
825.19238288867768
20
-697.90617671193877
30
0
10
825.2662411475842
20
-697.9262700464742
30
0
10
825.47049187474568
20
-697.98290915046778
30
0
10
825.94645553669829
20
-698.11722832948476
30
0
10
826.89239164878188
20
-698.40519874012966
30
0
10
828.43999485139284
20
-698.99743113165437
30
0
10
830.16055618263567
20
-699.87104849544789
30
0
10
831.86139954314126
20
-701.04462799660587
30
0
10
833.38732510287855
20
-702.46956986519876
30
0
10
834.65510408678097
20
-703.99429977955151
30
0
10
835.62578101233498
20
-705.417486371162
30
0
10
836.15462073744254
20
-706.30846030455291
30
0
10
836.41159317157371
20
-706.76184919364391
30
0
10
836.52106649530185
20
-706.95840386708596
30
0
10
836.56034190743628
20
-707.0302532128926
30
0
0
ARC
5
149
100
AcDbEntity
8
0
100
AcDbCircle
10
244.81567005289264
20
-690.77444215505011
30
0
40
563.11232072373002
210
0
220
-0
230
1
100
AcDbArc
50
0.082296313801302867
51
0.44605133295243277
0
LINE
5
150
100
AcDbEntity
8
0
100
AcDbLine
10
836.56034190743628
20
-707.0302532128926
30
0
11
836.56034190743628
21
-695.66688158709258
31
0
0
LINE
5
151
100
AcDbEntity
8
0
100
AcDbLine
10
816.25243855652297
20
-689.87280612363384
30
0
11
816.21361613540876
21
-686.39062075994957
31
0
0
LINE
5
152
100
AcDbEntity
8
0
100
AcDbLine
10
743.14743672896668
20
-697.44513280318665
30
0
11
807.92799077662266
21
-697.44513280318665
31
0
0
LINE
5
153
100
AcDbEntity
8
0
100
AcDbLine
10
626.85811711412521
20
-806.53784671565006
30
0
11
618.67299891157631
21
-808.10874781383393
31
0
0
LINE
5
154
100
AcDbEntity
8
0
100
AcDbLine
10
618.67299891157631
20
-808.10874781383393
30
0
11
619.8981302497989
21
-814.49224632202868
31
0
0
LINE
5
155
100
AcDbEntity
8
0
100
AcDbLine
10
581.80863709808148
20
-1042.0272779646957
30
0
11
662.0076626029545
21
-1029.472811564825
31
0
0
LINE
5
156
100
AcDbEntity
8
0
100
AcDbLine
10
531.4904862341466
20
-955.14374305196861
30
0
11
527.91168765860186
21
-955.14374305196861
31
0
0
LINE
5
157
100
AcDbEntity
8
0
100
AcDbLine
10
647.63730503548095
20
-1044.7307988358339
30
0
11
654.82248381921636
21
-1043.3518052003219
31
0
0
LINE
5
158
100
AcDbEntity
8
0
100
AcDbLine
10
646.41217540524326
20
-1038.3472999998414
30
0
11
638.22705758533425
21
-1039.9182030917636
31
0
0
LINE
5
159
100
AcDbEntity
8
0
100
AcDbLine
10
533.7138251514333
20
-1124.9504433086654
30
0
11
520.64601150801502
21
-1124.9497665964643
31
0
0
LINE
5
160
100
AcDbEntity
8
0
100
AcDbLine
10
647.63724842538863
20
-1044.7308097005557
30
0
11
646.41211879518949
21
-1038.3473108645535
31
0
0
LINE
5
161
100
AcDbEntity
8
0
100
AcDbLine
10
535.05890856125507
20
-1070.2308537803976
30
0
11
520.64601150801502
21
-1124.9497665964643
31
0
0
LINE
5
162
100
AcDbEntity
8
0
100
AcDbLine
10
638.22705758533425
20
-1039.9182030917636
30
0
11
639.45219062816932
21
-1046.3017020816835
31
0
0
LINE
5
163
100
AcDbEntity
8
0
100
AcDbLine
10
503.9756449293252
20
-904.2623495422589
30
0
11
514.98706258612765
21
-904.2623495422589
31
0
0
LINE
5
164
100
AcDbEntity
8
0
100
AcDbLine
10
662.0076626029545
20
-1029.472811564825
30
0
11
662.00766260295495
21
-1041.972811564825
31
0
0
LINE
5
165
100
AcDbEntity
8
0
100
AcDbLine
10
514.98706258612765
20
-904.2623495422589
30
0
11
531.4904862341466
21
-955.14374305196861
31
0
0
LINE
5
166
100
AcDbEntity
8
0
100
AcDbLine
10
662.00766260295495
20
-1041.972811564825
30
0
11
647.63730503548095
21
-1044.7307988358339
31
0
0
LINE
5
167
100
AcDbEntity
8
0
100
AcDbLine
10
527.91202658909731
20
-963.48874304508604
30
0
11
534.53012590357071
21
-963.48847319807055
31
0
0
LINE
5
168
100
AcDbEntity
8
0
100
AcDbLine
10
646.41217540524326
20
-1038.3472999998414
30
0
11
646.41211879518949
21
-1038.3473108645535
31
0
0
ARC
5
169
100
AcDbEntity
8
0
100
AcDbCircle
10
577.94219209748587
20
-1017.3280757251293
30
0
40
24.999999646353146
210
0
220
0
230
1
100
AcDbArc
50
197.97052953607528
51
278.89695040694357
0
LINE
5
170
100
AcDbEntity
8
0
100
AcDbLine
10
527.91168765860186
20
-955.14374305196861
30
0
11
527.91202658909731
21
-963.48874304508604
31
0
0
LINE
5
171
100
AcDbEntity
8
0
100
AcDbLine
10
647.63730503548095
20
-1044.7307988358339
30
0
11
646.41217540524326
21
-1038.3472999998414
31
0
0
SPLINE
5
172
100
AcDbEntity
8
0
100
AcDbSpline
70
4
71
5
72
21
73
15
74
0
42
0.000000001
43
0.0000000001
44
0.0000000001
40
0
40
0
40
0
40
0
40
0
40
0
40
0.10000000000000001
40
0.20000000000000001
40
0.30000000000000004
40
0.40000000000000002
40
0.5
40
0.59999999999999998
40
0.69999999999999996
40
0.79999999999999993
40
0.89999999999999991
40
1
40
1
40
1
40
1
40
1
40
1
41
1
41
1
41
1
41
1
41
1
41
1
41
1
41
1
41
1
41
1
41
1
41
1
41
1
41
1
41
1
10
533.7138251514333
20
-1124.9504433086654
30
0
10
535.69045881417151
20
-1123.0069885266869
30
0
10
539.65567059260002
20
-1119.1521144625035
30
0
10
545.63931998436135
20
-1113.4659054811068
30
0
10
553.69037575883567
20
-1106.0796977774075
30
0
10
563.88396728085411
20
-1097.1949913082719
30
0
10
574.21932109055319
20
-1088.6904969562886
30
0
10
584.70863386747226
20
-1080.5989267034474
30
0
10
595.35967263947339
20
-1072.9411120289878
30
0
10
606.16752348485795
20
-1065.7038735988513
30
0
10
617.12095965613469
20
-1058.8571008280069
30
0
10
625.99093198271657
20
-1053.6672600251625
30
0
10
632.69993629910584
20
-1049.9264819225978
30
0
10
637.19732008955054
20
-1047.4989144497217
30
0
10
639.45219062816932
20
-1046.3017020816835
30
0
0
LINE
5
173
100
AcDbEntity
8
0
100
AcDbLine
10
743.14743672896668
20
-697.44513280318665
30
0
11
728.18870429394019
21
-697.44513280318665
31
0
0
SPLINE
5
174
100
AcDbEntity
8
0
100
AcDbSpline
70
4
71
5
72
31
73
25
74
0
42
0.000000001
43
0.0000000001
44
0.0000000001
40
0
40
0
40
0
40
0
40
0
40
0
40
0.050000000000000003
40
0.10000000000000001
40
0.15000000000000002
40
0.20000000000000001
40
0.25
40
0.29999999999999999
40
0.34999999999999998
40
0.39999999999999997
40
0.44999999999999996
40
0.49999999999999994
40
0.54999999999999993
40
0.59999999999999998
40
0.65000000000000002
40
0.70000000000000007
40
0.75000000000000011
40
0.80000000000000016
40
0.8500000000000002
40
0.90000000000000024
40
0.95000000000000029
40
1
40
1
40
1
40
1
40
1
40
1
41
1
41
1
41
1
41
1
41
1
41
1
41
1
41
1
41
1
41
1
41
1
41
1
41
1
41
1
41
1
41
1
41
1
41
1
41
1
41
1
41
1
41
1
41
1
41
1
41
1
10
728.18870429394019
20
-697.44513280318665
30
0
10
727.70982914225795
20
-697.46021065931973
30
0
10
726.7602323964785
20
-697.50029524800334
30
0
10
725.36029768967228
20
-697.59020858820509
30
0
10
723.542840783869
20
-697.76991051894345
30
0
10
721.35375565181721
20
-698.09556244663497
30
0
10
719.2479769954175
20
-698.52374011397046
30
0
10
717.22495770382511
20
-699.05544129969473
30
0
10
715.2823533119365
20
-699.69051725433974
30
0
10
713.41471891676929
20
-700.42664691233153
30
0
10
711.61404985907893
20
-701.25925308414503
30
0
10
709.87216638826351
20
-702.1823957603691
30
0
10
708.18263778557878
20
-703.18928669359889
30
0
10
706.54260137935
20
-704.2728311735151
30
0
10
704.95521776484054
20
-705.4260758747796
30
0
10
703.42959530994005
20
-706.64252565358595
30
0
10
701.97795234455771
20
-707.91629624334462
30
0
10
700.61339421710227
20
-709.24225929554734
30
0
10
699.34763840890912
20
-710.61613238137977
30
0
10
698.18803674816013
20
-712.0345596585687
30
0
10
697.13750320321776
20
-713.49509920389198
30
0
10
696.38469536328807
20
-714.69593366043966
30
0
10
695.86901803862929
20
-715.6143963838025
30
0
10
695.54689236788715
20
-716.23460005774064
30
0
10
695.39124424507179
20
-716.54667569847993
30
0
0
LINE
5
175
100
AcDbEntity
8
0
100
AcDbLine
10
484.42158375135654
20
-672.45288452049988
30
0
11
512.78711649858246
21
-769.47398045328487
31
0
0
SPLINE
5
176
100
AcDbEntity
8
0
100
AcDbSpline
70
4
71
5
72
31
73
25
74
0
42
0.000000001
43
0.0000000001
44
0.0000000001
40
0
40
0
40
0
40
0
40
0
40
0
40
0.050000000000000003
40
0.10000000000000001
40
0.15000000000000002
40
0.20000000000000001
40
0.25
40
0.29999999999999999
40
0.34999999999999998
40
0.39999999999999997
40
0.44999999999999996
40
0.49999999999999994
40
0.54999999999999993
40
0.59999999999999998
40
0.65000000000000002
40
0.70000000000000007
40
0.75000000000000011
40
0.80000000000000016
40
0.8500000000000002
40
0.90000000000000024
40
0.95000000000000029
40
1
40
1
40
1
40
1
40
1
40
1
41
1
41
1
41
1
41
1
41
1
41
1
41
1
41
1
41
1
41
1
41
1
41
1
41
1
41
1
41
1
41
1
41
1
41
1
41
1
41
1
41
1
41
1
41
1
41
1
41
1
10
721.31653633946382
20
-686.39062075994946
30
0
10
720.92842971878849
20
-686.46079226426207
30
0
10
720.14891152775408
20
-686.60325905314505
30
0
10
718.96971819924693
20
-686.8233283032431
30
0
10
717.37755767073622
20
-687.12956363542071
30
0
10
715.35628514708606
20
-687.53818638338362
30
0
10
713.31129907481522
20
-687.98595625916596
30
0
10
711.25771987270787
20
-688.49859727679222
30
0
10
709.22234817584797
20
-689.12035454035345
30
0
10
707.24359614757554
20
-689.91258420865029
30
0
10
705.3641241147368
20
-690.93880707697747
30
0
10
703.62479180979574
20
-692.25186876247881
30
0
10
702.05867092918322
20
-693.88157281977965
30
0
10
700.68309827543999
20
-695.81735654611725
30
0
10
699.49950846326169
20
-698.01008717958371
30
0
10
698.49908977608732
20
-700.38814312281511
30
0
10
697.66638092548646
20
-702.86872396100102
30
0
10
696.98333896784766
20
-705.37046827260497
30
0
10
696.43304327660121
20
-707.82575988154701
30
0
10
696.00310716521233
20
-710.19205447696231
30
0
10
695.68494035489994
20
-712.44527562452402
30
0
10
695.51559450593527
20
-714.14887465491063
30
0
10
695.43531886232927
20
-715.3697732170366
30
0
10
695.40248807199555
20
-716.15856502560746
30
0
10
695.39124424507179
20
-716.54667569847993
30
0
0
SPLINE
5
177
100
AcDbEntity
8
0
100
AcDbSpline
70
4
71
5
72
31
73
25
74
0
42
0.000000001
43
0.0000000001
44
0.0000000001
40
0
40
0
40
0
40
0
40
0
40
0
40
0.050000000000000003
40
0.10000000000000001
40
0.15000000000000002
40
0.20000000000000001
40
0.25
40
0.29999999999999999
40
0.34999999999999998
40
0.39999999999999997
40
0.44999999999999996
40
0.49999999999999994
40
0.54999999999999993
40
0.59999999999999998
40
0.65000000000000002
40
0.70000000000000007
40
0.75000000000000011
40
0.80000000000000016
40
0.8500000000000002
40
0.90000000000000024
40
0.95000000000000029
40
1
40
1
40
1
40
1
40
1
40
1
41
1
41
1
41
1
41
1
41
1
41
1
41
1
41
1
41
1
41
1
41
1
41
1
41
1
41
1
41
1
41
1
41
1
41
1
41
1
41
1
41
1
41
1
41
1
41
1
41
1
10
816.21361613540876
20
-686.39062075994957
30
0
10
816.51683367327553
20
-686.42350332098533
30
0
10
817.11837322663825
20
-686.48855407136966
30
0
10
818.00599606519563
20
-686.58398716464205
30
0
10
819.15999968370579
20
-686.70692697414313
30
0
10
820.55300579521611
20
-686.85443278822379
30
0
10
821.89671624254083
20
-686.99896508141921
30
0
10
823.19253352430837
20
-687.14711818046044
30
0
10
824.44371824627774
20
-687.31005525842875
30
0
10
825.65622252444405
20
-687.50492290183502
30
0
10
826.83926797909737
20
-687.75578724091224
30
0
10
828.00222782070045
20
-688.08834075143466
30
0
10
829.15189099059376
20
-688.52518074239345
30
0
10
830.28941057314455
20
-689.08048675029067
30
0
10
831.40769905683487
20
-689.75535371983233
30
0
10
832.4875449570402
20
-690.53089777452851
30
0
10
833.50063239049871
20
-691.37275512783845
30
0
10
834.41443187141419
20
-692.23861747430487
30
0
10
835.19665817212785
20
-693.08479230875764
30
0
10
835.8194998906713
20
-693.87244997572861
30
0
10
836.26533264248326
20
-694.57558267773845
30
0
10
836.47529629037035
20
-695.06148690787268
30
0
10
836.54990423148831
20
-695.38141001544204
30
0
10
836.56297449058286
20
-695.57500593959571
30
0
10
836.56034190743628
20
-695.66688158709258
30
0
0
LINE
5
178
100
AcDbEntity
8
0
100
AcDbLine
10
721.31653633946382
20
-686.39062075994946
30
0
11
732.70983786090414
21
-686.39062075994957
31
0
0
LINE
5
179
100
AcDbEntity
8
0
100
AcDbLine
10
743.17034339796066
20
-686.39062075994957
30
0
11
807.9109265245138
21
-686.39062075994957
31
0
0
LINE
5
180
100
AcDbEntity
8
0
100
AcDbLine
10
807.9274099045989
20
-689.96562075994962
30
0
11
816.25243855652297
21
-689.87280612363384
31
0
0
LINE
5
181
100
AcDbEntity
8
0
100
AcDbLine
10
503.9756449293252
20
-904.2623495422589
30
0
11
535.05383139377057
21
-1015.1114026057077
31
0
0
SPLINE
5
182
100
AcDbEntity
8
0
100
AcDbSpline
70
4
71
5
72
21
73
15
74
0
42
0.000000001
43
0.0000000001
44
0.0000000001
40
0
40
0
40
0
40
0
40
0
40
0
40
0.10000000000000001
40
0.20000000000000001
40
0.30000000000000004
40
0.40000000000000002
40
0.5
40
0.59999999999999998
40
0.69999999999999996
40
0.79999999999999993
40
0.89999999999999991
40
1
40
1
40
1
40
1
40
1
40
1
41
1
41
1
41
1
41
1
41
1
41
1
41
1
41
1
41
1
41
1
41
1
41
1
41
1
41
1
41
1
10
535.05383139377057
20
-1015.1114026057077
30
0
10
535.1071576337099
20
-1015.412517019364
30
0
10
535.24629410389412
20
-1016.2635646867825
30
0
10
535.55243515376833
20
-1018.2865247634625
30
0
10
536.12681490920511
20
-1022.3668186691259
30
0
10
536.96148952631302
20
-1029.1728126422581
30
0
10
537.71260609151909
20
-1036.9439115574842
30
0
10
538.18275347061854
20
-1044.9476703465884
30
0
10
538.22672582655366
20
-1052.6111594220456
30
0
10
537.79183944117028
20
-1059.6380810153112
30
0
10
536.87425693782689
20
-1065.9008899331752
30
0
10
535.77020069616538
20
-1070.281098097536
30
0
10
534.74416522564707
20
-1073.2207782327555
30
0
10
533.97359161848135
20
-1075.0295554104709
30
0
10
533.56666601205302
20
-1075.896188768123
30
0
0
LINE
5
183
100
AcDbEntity
8
0
100
AcDbLine
10
752.53155185400465
20
-802.75336916817832
30
0
11
751.90166584241069
21
-802.75336917979394
31
0
0
LINE
5
184
100
AcDbEntity
8
0
100
AcDbLine
10
741.39019918505278
20
-825.3366593558228
30
0
11
726.66813142706985
21
-893.30747316006534
31
0
0
LINE
5
185
100
AcDbEntity
8
0
100
AcDbLine
10
741.39019918505278
20
-825.3366593558228
30
0
11
742.39338104088984
21
-820.67204781780697
31
0
0
LINE
5
186
100
AcDbEntity
8
0
100
AcDbLine
10
752.53155185400465
20
-802.75336917979394
30
0
11
751.90166584241069
21
-802.75336917979394
31
0
0
LINE
5
187
100
AcDbEntity
8
0
100
AcDbLine
10
741.05390456102111
20
-686.37956178662137
30
0
11
741.03522420562501
21
-689.9545617866213
31
0
0
LINE
5
188
100
AcDbEntity
8
0
100
AcDbLine
10
743.17034339796066
20
-686.39062075994957
30
0
11
741.05390456102111
21
-686.37956178662137
31
0
0
LINE
5
189
100
AcDbEntity
8
0
100
AcDbLine
10
741.03522420562501
20
-689.9545617866213
30
0
11
732.70983786090414
21
-689.91105935984365
31
0
0
LINE
5
190
100
AcDbEntity
8
0
100
AcDbLine
10
732.70983786090414
20
-689.91105935984365
30
0
11
732.70983786090414
21
-686.39062075994957
31
0
0
LINE
5
191
100
AcDbEntity
8
0
100
AcDbLine
10
743.56716584241076
20
-802.75336917979394
30
0
11
734.74594578573624
21
-802.75336917979394
31
0
0
SPLINE
5
192
100
AcDbEntity
8
0
100
AcDbSpline
70
4
71
5
72
21
73
15
74
0
42
0.000000001
43
0.0000000001
44
0.0000000001
40
0
40
0
40
0
40
0
40
0
40
0
40
0.10000000000000001
40
0.20000000000000001
40
0.30000000000000004
40
0.40000000000000002
40
0.5
40
0.59999999999999998
40
0.69999999999999996
40
0.79999999999999993
40
0.89999999999999991
40
1
40
1
40
1
40
1
40
1
40
1
41
1
41
1
41
1
41
1
41
1
41
1
41
1
41
1
41
1
41
1
41
1
41
1
41
1
41
1
41
1
10
734.74594578573624
20
-802.75336917979394
30
0
10
734.67208752682973
20
-802.7332758452585
30
0
10
734.46783679965552
20
-802.67663674125345
30
0
10
733.9918731376406
20
-802.54231756218019
30
0
10
733.04593702551063
20
-802.25434715149117
30
0
10
731.4983338229041
20
-801.66211475996874
30
0
10
729.77777249172163
20
-800.78849739623035
30
0
10
728.07692913128358
20
-799.61491789513673
30
0
10
726.55100357158744
20
-798.18997602658499
30
0
10
725.28322458769139
20
-796.66524611224122
30
0
10
724.31254766211725
20
-795.2420595206122
30
0
10
723.78370793698673
20
-794.35108558719821
30
0
10
723.52673550284283
20
-793.8976966980922
30
0
10
723.41726217911196
20
-793.70114202464663
30
0
10
723.37798676697753
20
-793.62929267883999
30
0
0
LINE
5
193
100
AcDbEntity
8
0
100
AcDbLine
10
723.37798676697753
20
-793.62929267883999
30
0
11
723.37798676715192
21
-806.12478851541425
31
0
0
SPLINE
5
194
100
AcDbEntity
8
0
100
AcDbSpline
70
4
71
5
72
26
73
20
74
0
42
0.000000001
43
0.0000000001
44
0.0000000001
40
0
40
0
40
0
40
0
40
0
40
0
40
0.066666666666666666
40
0.13333333333333333
40
0.20000000000000001
40
0.26666666666666666
40
0.33333333333333331
40
0.39999999999999997
40
0.46666666666666662
40
0.53333333333333333
40
0.59999999999999998
40
0.66666666666666663
40
0.73333333333333328
40
0.79999999999999993
40
0.86666666666666659
40
0.93333333333333324
40
1
40
1
40
1
40
1
40
1
40
1
41
1
41
1
41
1
41
1
41
1
41
1
41
1
41
1
41
1
41
1
41
1
41
1
41
1
41
1
41
1
41
1
41
1
41
1
41
1
41
1
10
723.37798676697753
20
-804.33743038626767
30
0
10
723.36585495392001
20
-804.76509650132289
30
0
10
723.35764677636394
20
-805.60834549960373
30
0
10
723.39350064908353
20
-806.83696948187549
30
0
10
723.53834007949229
20
-808.40210724825749
30
0
10
723.88581753924325
20
-810.23307357184547
30
0
10
724.4064648835124
20
-811.93289345378378
30
0
10
725.10781814224697
20
-813.4946561162302
30
0
10
725.99646216260328
20
-814.91129849274205
30
0
10
727.07607597986316
20
-816.17688743669964
30
0
10
728.34835072573696
20
-817.28647326188263
30
0
10
729.81304754923849
20
-818.23658120077334
30
0
10
731.46789469936311
20
-819.02578803590563
30
0
10
733.30726090027997
20
-819.65646510442866
30
0
10
735.32309582764526
20
-820.13402554810284
30
0
10
737.5072221432315
20
-820.46465008501082
30
0
10
739.38355100705735
20
-820.61612912105886
30
0
10
740.86126213978469
20
-820.66794474327469
30
0
10
741.87749299998484
20
-820.67522422479692
30
0
10
742.39338104088984
20
-820.67204781780697
30
0
0
SPLINE
5
195
100
AcDbEntity
8
0
100
AcDbSpline
70
4
71
5
72
21
73
15
74
0
42
0.000000001
43
0.0000000001
44
0.0000000001
40
0
40
0
40
0
40
0
40
0
40
0
40
0.10000000000000001
40
0.20000000000000001
40
0.30000000000000004
40
0.40000000000000002
40
0.5
40
0.59999999999999998
40
0.69999999999999996
40
0.79999999999999993
40
0.89999999999999991
40
1
40
1
40
1
40
1
40
1
40
1
41
1
41
1
41
1
41
1
41
1
41
1
41
1
41
1
41
1
41
1
41
1
41
1
41
1
41
1
41
1
10
514.01260571535818
20
-844.08672781107748
30
0
10
514.18400804590851
20
-843.60451703617002
30
0
10
514.5197493853907
20
-842.63411587589962
30
0
10
515.00217133229012
20
-841.16057522161577
30
0
10
515.60232409156947
20
-839.15938698681327
30
0
10
516.27597162975144
20
-836.59310218310361
30
0
10
516.86672197509677
20
-833.95663893505059
30
0
10
517.36856373519458
20
-831.24490816591174
30
0
10
517.77962233024857
20
-828.45632290881497
30
0
10
518.10495416293304
20
-825.59516377280943
30
0
10
518.35166784965384
20
-822.66744871370531
30
0
10
518.49161455036835
20
-820.27666290392426
30
0
10
518.56637447035553
20
-818.45800698208132
30
0
10
518.60301258814115
20
-817.23439340185246
30
0
10
518.61803100218629
20
-816.61979237814626
30
0
0
SPLINE
5
196
100
AcDbEntity
8
0
100
AcDbSpline
70
4
71
5
72
26
73
20
74
0
42
0.000000001
43
0.0000000001
44
0.0000000001
40
0
40
0
40
0
40
0
40
0
40
0
40
0.066666666666666666
40
0.13333333333333333
40
0.20000000000000001
40
0.26666666666666666
40
0.33333333333333331
40
0.39999999999999997
40
0.46666666666666662
40
0.53333333333333333
40
0.59999999999999998
40
0.66666666666666663
40
0.73333333333333328
40
0.79999999999999993
40
0.86666666666666659
40
0.93333333333333324
40
1
40
1
40
1
40
1
40
1
40
1
41
1
41
1
41
1
41
1
41
1
41
1
41
1
41
1
41
1
41
1
41
1
41
1
41
1
41
1
41
1
41
1
41
1
41
1
41
1
41
1
10
512.78711649858246
20
-769.47398045328487
30
0
10
512.80656204704076
20
-769.56596329422825
30
0
10
512.86179424100555
20
-769.81796468210632
30
0
10
512.99366467072753
20
-770.40005150930551
30
0
10
513.26458816152331
20
-771.60215002408438
30
0
10
513.74268399297557
20
-773.8913925159427
30
0
10
514.33203610869737
20
-777.02368119383073
30
0
10
514.99709952805267
20
-780.96955108729503
30
0
10
515.69697603624957
20
-785.57568274189248
30
0
10
516.38901867304958
20
-790.61207860577247
30
0
10
517.03195152554611
20
-795.79973768433877
30
0
10
517.58922296883316
20
-800.84282665602814
30
0
10
518.03240626390482
20
-805.45686513618602
30
0
10
518.34528303524723
20
-809.39991255968084
30
0
10
518.52782351166275
20
-812.50235768005018
30
0
10
518.60234722278403
20
-814.70692158003533
30
0
10
518.61342423592134
20
-815.81636840400915
30
0
10
518.61542191300305
20
-816.33280831274544
30
0
10
518.61710357163849
20
-816.5459864834113
30
0
10
518.61803100218629
20
-816.61979237814626
30
0
0
LINE
5
197
100
AcDbEntity
8
0
100
AcDbLine
10
751.90166584241069
20
-809.14471846461697
30
0
11
743.5671658648946
21
-809.14471846461697
31
0
0
LINE
5
198
100
AcDbEntity
8
0
100
AcDbLine
10
794.54240115096832
20
-940.35560138817357
30
0
11
859.32295519862419
21
-940.35560138817357
31
0
0
LINE
5
199
100
AcDbEntity
8
0
100
AcDbLine
10
794.54240115096832
20
-940.81664529692546
30
0
11
794.54240115096832
21
-940.35560138817357
31
0
0
LINE
5
200
100
AcDbEntity
8
0
100
AcDbLine
10
794.54240115096832
20
-940.35560138817357
30
0
11
779.58366871594194
21
-940.35560138817357
31
0
0
LINE
5
201
100
AcDbEntity
8
0
100
AcDbLine
10
784.10480228290589
20
-932.82152794483056
30
0
11
784.10480228290589
21
-929.30108934493637
31
0
0
LINE
5
202
100
AcDbEntity
8
0
100
AcDbLine
10
867.65745519862423
20
-940.35560138817357
30
0
11
867.65745519862423
21
-940.81664529692546
31
0
0
LINE
5
203
100
AcDbEntity
8
0
100
AcDbLine
10
792.44886898302298
20
-929.29003037160805
30
0
11
792.43018862762688
21
-932.8650303716081
31
0
0
LINE
5
204
100
AcDbEntity
8
0
100
AcDbLine
10
872.17673728234195
20
-940.35560138817357
30
0
11
859.32295519862419
21
-940.35560138817357
31
0
0
LINE
5
205
100
AcDbEntity
8
0
100
AcDbLine
10
859.32237432660042
20
-932.8760893449363
30
0
11
867.6474029785245
21
-932.78327470862064
31
0
0
LINE
5
206
100
AcDbEntity
8
0
100
AcDbLine
10
867.6474029785245
20
-932.78327470862064
30
0
11
867.60858055741005
21
-929.30108934493637
31
0
0
LINE
5
207
100
AcDbEntity
8
0
100
AcDbLine
10
872.17673728234195
20
-940.35560138817357
30
0
11
873.04213835576843
21
-940.44606232010074
31
0
0
LINE
5
208
100
AcDbEntity
8
0
100
AcDbLine
10
859.32295519862419
20
-940.92529180486258
30
0
11
859.32295519862419
21
-940.35560138817357
31
0
0
ARC
5
209
100
AcDbEntity
8
0
100
AcDbCircle
10
296.21063447489593
20
-933.68491074003691
30
0
40
563.11232072372832
210
0
220
-0
230
1
100
AcDbArc
50
0.082296313801302867
51
0.44605133295243277
0
LINE
5
210
100
AcDbEntity
8
0
100
AcDbLine
10
786.30240766813881
20
-940.35560138817357
30
0
11
794.54240115096832
21
-940.35560138817357
31
0
0
LINE
5
211
100
AcDbEntity
8
0
100
AcDbLine
10
792.43018862762688
20
-932.8650303716081
30
0
11
784.10480228290589
21
-932.82152794483056
31
0
0
LINE
5
212
100
AcDbEntity
8
0
100
AcDbLine
10
544.98781439294669
20
-996.75710037855708
30
0
11
539.61588610861827
21
-996.75710037855708
31
0
0
LINE
5
213
100
AcDbEntity
8
0
100
AcDbLine
10
792.4395288053247
20
-925.20759490689306
30
0
11
859.21769469900426
21
-925.20759490689306
31
0
0
LINE
5
214
100
AcDbEntity
8
0
100
AcDbLine
10
859.21769469900426
20
-925.20759490689306
30
0
11
859.30589094651532
21
-929.30108934493637
31
0
0
LINE
5
215
100
AcDbEntity
8
0
100
AcDbLine
10
792.4395288053247
20
-925.20759490689306
30
0
11
792.44886898302298
21
-930.3987691744311
31
0
0
LINE
5
216
100
AcDbEntity
8
0
100
AcDbLine
10
784.10480228290589
20
-929.30108934493637
30
0
11
784.10480228290589
21
-925.29340681390659
31
0
0
LINE
5
217
100
AcDbEntity
8
0
100
AcDbLine
10
784.10480228290589
20
-925.29340681390659
30
0
11
762.83244595322742
21
-925.29340725898396
31
0
0
LINE
5
218
100
AcDbEntity
8
0
100
AcDbLine
10
867.60858055741005
20
-929.30108934493637
30
0
11
867.62799176796739
21
-931.04218202677566
31
0
0
LINE
5
219
100
AcDbEntity
8
0
100
AcDbLine
10
867.60858055741005
20
-929.30108934493637
30
0
11
867.61828616268872
21
-930.17163568585488
31
0
0
LINE
5
220
100
AcDbEntity
8
0
100
AcDbLine
10
873.0421383021594
20
-929.88139174392461
30
0
11
873.04213835576843
21
-940.44606232010074
31
0
0
LINE
5
221
100
AcDbEntity
8
0
100
AcDbLine
10
873.04213832148719
20
-933.69029132927517
30
0
11
873.04213830870003
21
-927.70759489343254
31
0
0
LINE
5
222
100
AcDbEntity
8
0
100
AcDbLine
10
867.56294273277592
20
-925.20759490514365
30
0
11
870.54213830335652
21
-925.20759489877594
31
0
0
LINE
5
223
100
AcDbEntity
8
0
100
AcDbLine
10
867.60858055741005
20
-929.30108934493637
30
0
11
867.56294273277592
21
-925.20759490514365
31
0
0
LINE
5
224
100
AcDbEntity
8
0
100
AcDbLine
10
737.83210587949429
20
-975.22277881364448
30
0
11
735.60919944707416
21
-1023.4563409927503
31
0
0
LINE
5
225
100
AcDbEntity
8
0
100
AcDbLine
10
768.95826411615985
20
-1005.2552062873319
30
0
11
768.07564766202995
21
-1024.9326001777304
31
0
0
LINE
5
226
100
AcDbEntity
8
0
100
AcDbLine
10
749.83400836435692
20
-940.00154979569288
30
0
11
749.83400600916116
21
-961.24285922677495
31
0
0
ARC
5
227
100
AcDbEntity
8
0
100
AcDbCircle
10
751.84196981832895
20
-1024.2044493232165
30
0
40
16.249999999999986
210
0
220
0
230
1
100
AcDbArc
50
177.36131658229783
51
357.43175724092538
0
ARC
5
228
100
AcDbEntity
8
0
100
AcDbCircle
10
753.9897868945219
20
-976.95247364702323
30
0
40
16.249999999999986
210
0
220
0
230
1
100
AcDbArc
50
104.817459506654
51
180.83292960968413
0
SPLINE
5
229
100
AcDbEntity
8
0
100
AcDbSpline
70
4
71
5
72
21
73
15
74
0
42
0.000000001
43
0.0000000001
44
0.0000000001
40
0
40
0
40
0
40
0
40
0
40
0
40
0.10000000000000001
40
0.20000000000000001
40
0.30000000000000004
40
0.40000000000000002
40
0.5
40
0.59999999999999998
40
0.69999999999999996
40
0.79999999999999993
40
0.89999999999999991
40
1
40
1
40
1
40
1
40
1
40
1
41
1
41
1
41
1
41
1
41
1
41
1
41
1
41
1
41
1
41
1
41
1
41
1
41
1
41
1
41
1
10
763.16147796253847
20
-944.12571410223791
30
0
10
763.0021184820514
20
-944.36624634202167
30
0
10
762.69099049865974
20
-944.87070944238121
30
0
10
762.24707024711847
20
-945.69759472465319
30
0
10
761.70147981503192
20
-946.94284612453725
30
0
10
761.10165948277654
20
-948.74385714560458
30
0
10
760.59071853939201
20
-950.78328775902207
30
0
10
760.17450352057028
20
-953.02415060183591
30
0
10
759.85480188638439
20
-955.37893458064912
30
0
10
759.62338227907821
20
-957.67679426971199
30
0
10
759.46653290252357
20
-959.69879940665783
30
0
10
759.3894724997092
20
-960.91861137053206
30
0
10
759.35401485614398
20
-961.52909795117864
30
0
10
759.33970012824432
20
-961.7898853051953
30
0
10
759.33487359708067
20
-961.88372468170485
30
0
0
ARC
5
230
100
AcDbEntity
8
0
100
AcDbCircle
10
870.54213830870003
20
-927.70759489877605
30
0
40
2.5
210
0
220
-0
230
1
100
AcDbArc
50
0
51
90.000000122464201
0
SPLINE
5
231
100
AcDbEntity
8
0
100
AcDbSpline
70
4
71
5
72
21
73
15
74
0
42
0.000000001
43
0.0000000001
44
0.0000000001
40
0
40
0
40
0
40
0
40
0
40
0
40
0.10000000000000001
40
0.20000000000000001
40
0.30000000000000004
40
0.40000000000000002
40
0.5
40
0.59999999999999998
40
0.69999999999999996
40
0.79999999999999993
40
0.89999999999999991
40
1
40
1
40
1
40
1
40
1
40
1
41
1
41
1
41
1
41
1
41
1
41
1
41
1
41
1
41
1
41
1
41
1
41
1
41
1
41
1
41
1
10
762.83244956820295
20
-925.29340681390659
30
0
10
762.31558916174822
20
-925.35697753283694
30
0
10
761.30432499998676
20
-925.50427724977385
30
0
10
759.85479675871807
20
-925.78569991012034
30
0
10
758.05906197514332
20
-926.28388123343029
30
0
10
756.05814954736911
20
-927.12541622579181
30
0
10
754.32270127054937
20
-928.20524589578531
30
0
10
752.87426186375546
20
-929.54270992411512
30
0
10
751.72437534547726
20
-931.14817083309731
30
0
10
750.86096621189483
20
-933.01078901117535
30
0
10
750.26230992926003
20
-935.11106336660396
30
0
10
749.97775594939696
20
-936.96576059377946
30
0
10
749.86671734644756
20
-938.44868242413952
30
0
10
749.83744984218993
20
-939.47747433579389
30
0
10
749.83400600916116
20
-940.00191495549927
30
0
0
SPLINE
5
232
100
AcDbEntity
8
0
100
AcDbSpline
70
4
71
5
72
21
73
15
74
0
42
0.000000001
43
0.0000000001
44
0.0000000001
40
0
40
0
40
0
40
0
40
0
40
0
40
0.10000000000000001
40
0.20000000000000001
40
0.30000000000000004
40
0.40000000000000002
40
0.5
40
0.59999999999999998
40
0.69999999999999996
40
0.79999999999999993
40
0.89999999999999991
40
1
40
1
40
1
40
1
40
1
40
1
41
1
41
1
41
1
41
1
41
1
41
1
41
1
41
1
41
1
41
1
41
1
41
1
41
1
41
1
41
1
10
779.58366871594194
20
-940.35560138817357
30
0
10
779.16377101368676
20
-940.36029580658146
30
0
10
778.32569149114761
20
-940.37957345972825
30
0
10
777.07371973507679
20
-940.43815541430035
30
0
10
775.4148888163844
20
-940.5765805391701
30
0
10
773.36428513016813
20
-940.85464403493575
30
0
10
771.35140664639061
20
-941.24028475468901
30
0
10
769.40473633793306
20
-941.72862747409056
30
0
10
767.57097012962822
20
-942.30029700549437
30
0
10
765.91966647294089
20
-942.91219442727413
30
0
10
764.54726607293981
20
-943.48658114048544
30
0
10
763.7548959393107
20
-943.84562226966762
30
0
10
763.37141782710194
20
-944.02479556520564
30
0
10
763.21492952091421
20
-944.09952802922987
30
0
10
763.16147796253847
20
-944.12571410223791
30
0
0
CIRCLE
5
233
100
AcDbEntity
8
0
100
AcDbCircle
10
751.84196981832895
20
-1024.2044493232165
30
0
40
0.625
210
0
220
0
230
1
0
ARC
5
234
100
AcDbEntity
8
0
100
AcDbCircle
10
823.30765741176026
20
-989.81235007782288
30
0
40
16.250002281750639
210
0
220
-0
230
1
100
AcDbArc
50
70.742987711203483
51
180.83292960968458
0
SPLINE
5
235
100
AcDbEntity
8
0
100
AcDbSpline
70
4
71
5
72
26
73
20
74
0
42
0.000000001
43
0.0000000001
44
0.0000000001
40
0
40
0
40
0
40
0
40
0
40
0
40
0.066666666666666666
40
0.13333333333333333
40
0.20000000000000001
40
0.26666666666666666
40
0.33333333333333331
40
0.39999999999999997
40
0.46666666666666662
40
0.53333333333333333
40
0.59999999999999998
40
0.66666666666666663
40
0.73333333333333328
40
0.79999999999999993
40
0.86666666666666659
40
0.93333333333333324
40
1
40
1
40
1
40
1
40
1
40
1
41
1
41
1
41
1
41
1
41
1
41
1
41
1
41
1
41
1
41
1
41
1
41
1
41
1
41
1
41
1
41
1
41
1
41
1
41
1
41
1
10
827.11685438452855
20
-974.01511872474543
30
0
10
827.47731070359816
20
-974.17422155987288
30
0
10
828.18225138044579
20
-974.50087170836628
30
0
10
829.19174902243128
20
-975.01619114283801
30
0
10
830.44120069076939
20
-975.75424627361326
30
0
10
831.8391962242838
20
-976.77467166825647
30
0
10
833.07163639705118
20
-977.92627945266986
30
0
10
834.14178059870164
20
-979.27659371103982
30
0
10
835.0582974785442
20
-980.92199283163563
30
0
10
835.83255577363343
20
-982.96341750831061
30
0
10
836.4773522699353
20
-985.48806829270222
30
0
10
837.00562017929155
20
-988.54374008462298
30
0
10
837.42956031521953
20
-992.1469839000689
30
0
10
837.75995643794636
20
-996.29469438792455
30
0
10
838.00575557200489
20
-1000.972060637689
30
0
10
838.17382449330751
20
-1006.1597039951105
30
0
10
838.24986748912715
20
-1010.7031963937648
30
0
10
838.27522847743944
20
-1014.3260455232393
30
0
10
838.27816162556041
20
-1016.8362427887434
30
0
10
838.27613463339821
20
-1018.1150827181316
30
0
0
LINE
5
236
100
AcDbEntity
8
0
100
AcDbLine
10
807.14997639673265
20
-988.08265524444414
30
0
11
804.92706996431252
21
-1036.3162174235499
31
0
0
LINE
5
237
100
AcDbEntity
8
0
100
AcDbLine
10
838.27613463339821
20
-1018.1150827181316
30
0
11
837.39351817926831
21
-1037.7924766085298
31
0
0
LINE
5
238
100
AcDbEntity
8
0
100
AcDbLine
10
810.40083789624305
20
-938.8682364667892
30
0
11
810.40083789624305
21
-940.35560138817357
31
0
0
ARC
5
239
100
AcDbEntity
8
0
100
AcDbCircle
10
821.15984033556742
20
-1037.0643257540162
30
0
40
16.249999999999986
210
0
220
0
230
1
100
AcDbArc
50
177.36131658229783
51
357.43175724092623
0
CIRCLE
5
240
100
AcDbEntity
8
0
100
AcDbCircle
10
821.15984033556742
20
-1037.0643257540162
30
0
40
0.625
210
0
220
0
230
1
0
SPLINE
5
241
100
AcDbEntity
8
0
100
AcDbSpline
70
4
71
5
72
16
73
10
74
0
42
0.000000001
43
0.0000000001
44
0.0000000001
40
0
40
0
40
0
40
0
40
0
40
0
40
0.20000000000000001
40
0.40000000000000002
40
0.60000000000000009
40
0.80000000000000004
40
1
40
1
40
1
40
1
40
1
40
1
41
1
41
1
41
1
41
1
41
1
41
1
41
1
41
1
41
1
41
1
10
828.66683867193183
20
-974.47149774241007
30
0
10
828.66669714071918
20
-974.47421075098555
30
0
10
828.66619835229335
20
-974.48380592862441
30
0
10
828.66480366186852
20
-974.51069322691774
30
0
10
828.66190560651205
20
-974.5666151432863
30
0
10
828.65767004305371
20
-974.64838529185511
30
0
10
828.65477360554928
20
-974.70432951627436
30
0
10
828.65338120820047
20
-974.73124843304936
30
0
10
828.6528844819162
20
-974.74087204478178
30
0
10
828.65274411523785
20
-974.74360111067551
30
0
0
SPLINE
5
242
100
AcDbEntity
8
0
100
AcDbSpline
70
4
71
5
72
26
73
20
74
0
42
0.000000001
43
0.0000000001
44
0.0000000001
40
0
40
0
40
0
40
0
40
0
40
0
40
0.066666666666666666
40
0.13333333333333333
40
0.20000000000000001
40
0.26666666666666666
40
0.33333333333333331
40
0.39999999999999997
40
0.46666666666666662
40
0.53333333333333333
40
0.59999999999999998
40
0.66666666666666663
40
0.73333333333333328
40
0.79999999999999993
40
0.86666666666666659
40
0.93333333333333324
40
1
40
1
40
1
40
1
40
1
40
1
41
1
41
1
41
1
41
1
41
1
41
1
41
1
41
1
41
1
41
1
41
1
41
1
41
1
41
1
41
1
41
1
41
1
41
1
41
1
41
1
10
759.33487359708067
20
-961.88372468170485
30
0
10
759.40384031339113
20
-961.91958887665407
30
0
10
759.61965569390668
20
-962.04288631834015
30
0
10
760.17707096937681
20
-962.3825660049165
30
0
10
761.30411971549211
20
-963.1075121546005
30
0
10
762.9439547371494
20
-964.29575060170009
30
0
10
764.40427750133108
20
-965.61564650463288
30
0
10
765.49994438049691
20
-967.05275657151219
30
0
10
766.22326588305259
20
-968.69162136865896
30
0
10
766.66338026196865
20
-970.66040889171654
30
0
10
766.93980360279897
20
-973.08127685662066
30
0
10
767.13817333209136
20
-976.02268513569334
30
0
10
767.32008905449572
20
-979.51709221179976
30
0
10
767.52628608847044
20
-983.57114006574182
30
0
10
767.78187355264777
20
-988.17602593245306
30
0
10
768.1001267283782
20
-993.3152642419725
30
0
10
768.40911191040277
20
-997.84009823127064
30
0
10
768.67175595892547
20
-1001.4602112209789
30
0
10
768.86048863125325
20
-1003.9735524244011
30
0
10
768.95826411615985
20
-1005.2552062873319
30
0
0
LINE
5
243
100
AcDbEntity
8
0
100
AcDbLine
10
544.98781439294669
20
-996.75710037855708
30
0
11
539.61588610861827
21
-996.75710037855708
31
0
0
LINE
5
244
100
AcDbEntity
8
0
100
AcDbLine
10
539.61588610861827
20
-996.75710037855708
30
0
11
539.61588610861827
21
-1005.0916003785571
31
0
0
LINE
5
245
100
AcDbEntity
8
0
100
AcDbLine
10
539.61588610861827
20
-1005.0916003785571
30
0
11
547.69111662007811
21
-1005.0916003785571
31
0
0
LINE
5
246
100
AcDbEntity
8
0
100
AcDbLine
10
534.19711102212079
20
-963.48848677645128
30
0
11
544.98781439294669
21
-996.75710037855708
31
0
0
LINE
5
247
100
AcDbEntity
8
0
100
AcDbLine
10
547.69111662007811
20
-1005.0916003785571
30
0
11
554.16180904837574
21
-1025.0412698984437
31
0
0
ENDSEC
0
SECTION
2
OBJECTS
0
DICTIONARY
5
C
100
AcDbDictionary
3
ACAD_GROUP
350
D
3
ACAD_MLINESTYLE
350
17
0
DICTIONARY
5
D
100
AcDbDictionary
0
DICTIONARY
5
1A
330
C
100
AcDbDictionary
0
DICTIONARY
5
17
100
AcDbDictionary
0
ENDSEC
0
EOF
